<svg id="Layer_5" enable-background="new 0 0 64 64" height="512" viewBox="0 0 64 64" width="512" xmlns="http://www.w3.org/2000/svg"><path d="m17.526 15.59c2.096-1.444 3.474-3.858 3.474-6.59 0-4.411-3.589-8-8-8s-8 3.589-8 8c0 2.732 1.378 5.146 3.474 6.59-4.339 1.474-7.474 5.579-7.474 10.41v3c0 2.757 2.243 5 5 5v25c0 2.206 1.794 4 4 4 1.201 0 2.266-.542 3-1.382.734.84 1.799 1.382 3 1.382 2.206 0 4-1.794 4-4v-18h1c2.206 0 4-1.794 4-4v-11c0-4.831-3.135-8.936-7.474-10.41zm-10.526-6.59c0-3.309 2.691-6 6-6s6 2.691 6 6-2.691 6-6 6-6-2.691-6-6zm16 28c0 1.103-.897 2-2 2h-1v-16h-2v36c0 1.103-.897 2-2 2s-2-.897-2-2v-18-.757c0-.534.208-1.036.586-1.415l1.121-1.121-1.414-1.414-1.121 1.121c-.756.756-1.172 1.761-1.172 2.829v.757 18c0 1.103-.897 2-2 2s-2-.897-2-2v-25h4.5c1.93 0 3.5-1.57 3.5-3.5s-1.57-3.5-3.5-3.5h-7.5v2h7.5c.827 0 1.5.673 1.5 1.5s-.673 1.5-1.5 1.5h-6.5c-1.654 0-3-1.346-3-3v-3c0-4.962 4.037-9 9-9h2c4.963 0 9 4.038 9 9z"/><path d="m45 19c-1.103 0-2-.897-2-2h-2c0 1.858 1.279 3.411 3 3.858v2.142h2v-2h3v-4c0-2.206-1.794-4-4-4-1.103 0-2-.897-2-2v-2h2c1.103 0 2 .897 2 2h2c0-1.858-1.279-3.411-3-3.858v-2.142h-2v2h-3v4c0 2.206 1.794 4 4 4 1.103 0 2 .897 2 2v2z"/><path d="m45 27c7.168 0 13-5.832 13-13s-5.832-13-13-13-13 5.832-13 13 5.832 13 13 13zm0-24c6.065 0 11 4.935 11 11s-4.935 11-11 11-11-4.935-11-11 4.935-11 11-11z"/><path d="m60 39h-12.03c-.833-.62-1.854-1-2.969-1s-2.136.38-2.969 1h-12.032c-1.654 0-3 1.346-3 3v2c0 1.654 1.346 3 3 3h.117l.845 6.76-.305.367c-1.032 1.291-.822 3.182.471 4.217.139.111.288.207.443.291l.218 1.738c.187 1.497 1.467 2.627 2.977 2.627h20.469c1.51 0 2.79-1.13 2.977-2.627l.218-1.737c.157-.085.307-.181.447-.293 1.291-1.034 1.501-2.925.456-4.231l-.294-.353.844-6.759h.117c1.654 0 3-1.346 3-3v-2c0-1.654-1.346-3-3-3zm-2.218 16.375c.345.43.274 1.061-.154 1.404-.421.335-1.066.27-1.42-.169l-8.102-9.723c.534-.428.974-.958 1.297-1.567zm-12.781-15.375c1.654 0 3 1.346 3 3s-1.346 3-3 3-3-1.346-3-3 1.346-3 3-3zm-12.625 16.781c-.431-.345-.501-.975-.169-1.39l8.392-10.07c.323.609.762 1.139 1.297 1.567l-8.112 9.737c-.335.415-.991.489-1.408.156zm-3.376-12.781v-2c0-.551.448-1 1-1h10.425c-.257.585-.4 1.227-.414 1.902l-1.749 2.098h-8.262c-.552 0-1-.449-1-1zm3.133 3h4.463l-3.881 4.657zm23.101 14h-3.234v-6h-2v6h-2v-6h-2v6h-2v-6h-2v6h-2v-6h-2v6h-3.234c-.503 0-.93-.376-.992-.876l-.149-1.193c.67-.141 1.275-.502 1.707-1.04l8.396-10.076c.408.109.83.185 1.273.185s.865-.076 1.274-.185l8.385 10.062c.44.547 1.046.911 1.716 1.053l-.15 1.194c-.062.5-.489.876-.992.876zm2.052-9.345-3.88-4.655h4.462zm3.714-7.655c0 .551-.448 1-1 1h-8.261l-1.748-2.097c-.013-.675-.157-1.318-.414-1.903h10.423c.552 0 1 .449 1 1z"/><path d="m47 29h2v4h-2z"/><path d="m47 35h2v2h-2z"/><path d="m41 33h2v4h-2z"/><path d="m41 29h2v2h-2z"/><path d="m51 27v7c0 1.654 1.346 3 3 3h1v-2h-1c-.552 0-1-.449-1-1v-7z"/><path d="m57 35h2v2h-2z"/><path d="m36 35h-1v2h1c1.654 0 3-1.346 3-3v-7h-2v7c0 .551-.448 1-1 1z"/><path d="m31 35h2v2h-2z"/></svg>